<svg version="1.1" xmlns="http://www.w3.org/2000/svg" xmlns:xlink="http://www.w3.org/1999/xlink" x="0px" y="0px" viewBox="0 0 48 48" enable-background="new 0 0 48 48" xml:space="preserve" width="528" height="528">
<circle fill="#4CAF50" cx="24" cy="24" r="19"/>
<path fill="#FFC107" d="M24,5v19l8,4l-8.8,15c0.3,0,0.5,0,0.8,0c10.5,0,19-8.5,19-19S34.5,5,24,5z"/>
<path fill="#F44336" d="M16,28l8-13h16.7C37.5,9,31.2,5,24,5c-6.7,0-12.6,3.5-16,8.8L16,28z"/>
<polygon fill="#DD2C00" points="8,13.8 16,28 21,27 "/>
<polygon fill="#F9A825" points="40.6,15 24,15 22.5,19.8 "/>
<polygon fill="#558B2F" points="23.2,43 32,28 28.2,24.9 "/>
<circle fill="#FFFFFF" cx="24" cy="24" r="9"/>
<circle fill="#2196F3" cx="24" cy="24" r="7"/>
</svg>